<svg width="32" height="32" viewBox="0 0 100 100" fill="none" xmlns="http://www.w3.org/2000/svg">
  <defs>
    <linearGradient id="shieldGrad" x1="0%" y1="0%" x2="100%" y2="100%">
      <stop offset="0%" stop-color="#38bdf8"/>
      <stop offset="50%" stop-color="#1d4ed8"/>
      <stop offset="100%" stop-color="#0f172a"/>
    </linearGradient>
    <linearGradient id="arrowGrad" x1="0%" y1="100%" x2="0%" y2="0%">
      <stop offset="0%" stop-color="#1e40af"/>
      <stop offset="100%" stop-color="#38bdf8"/>
    </linearGradient>
  </defs>
  <path d="M50 8 L85 22 V50 C85 70 70 85 50 92 C30 85 15 70 15 50 V22 L50 8 Z" stroke="url(#shieldGrad)" stroke-width="5" fill="#030712"/>
  <path d="M50 22 L64 42 H55 V68 H45 V42 H36 L50 22 Z" fill="url(#arrowGrad)"/>
  <path d="M22 55 C30 40, 38 70, 44 55" stroke="#38bdf8" stroke-width="4" stroke-linecap="round" fill="none"/>
  <path d="M78 55 C70 40, 62 70, 56 55" stroke="#38bdf8" stroke-width="4" stroke-linecap="round" fill="none"/>
  <polygon points="50,76 56,82 50,88 44,82" fill="#38bdf8"/>
</svg>
